<svg xmlns="http://www.w3.org/2000/svg" viewBox="0 0 96.29 97"><g fill="#333333"><path d="M41.182 36.455L35.73 24.587A19837.42 19837.42 0 0 0 .003 96.41c3.512 0 6.658.125 9.811 0 .608 0 1.574-.607 1.94-1.214 2.421-4.726 4.726-9.446 7.148-14.173 7.265-14.655 14.655-29.187 21.921-43.842-.007-.359.235-.483.359-.725zM63.586 85.756h-1.939c-11.26 0-22.528-.124-33.79-.124-.848 0-2.18.607-2.545 1.331-1.573 3.03-2.788 6.058-4.237 9.688h47.48l-4.969-10.895z"/></g><path fill="#333333" d="M36.338 22.89L47.964.003l48.328 96.165-26.53-.242z"/></svg>